<svg width="18" height="18" viewBox="0 0 18 18" fill="none" xmlns="http://www.w3.org/2000/svg">
<g clip-path="url(#clip0_150_7603)">
<path d="M13.8 8.99995C13.8 11.6509 11.6509 13.8 8.99995 13.8C6.34898 13.8 4.19995 11.6509 4.19995 8.99995C4.19995 6.34898 6.34898 4.19995 8.99995 4.19995C11.6509 4.19995 13.8 6.34898 13.8 8.99995Z" fill="#AEAEB2"/>
<path fill-rule="evenodd" clip-rule="evenodd" d="M9 0.9375C9.31065 0.9375 9.5625 1.18934 9.5625 1.5V2.25C9.5625 2.56066 9.31065 2.8125 9 2.8125C8.68935 2.8125 8.4375 2.56066 8.4375 2.25V1.5C8.4375 1.18934 8.68935 0.9375 9 0.9375ZM3.29896 3.29896C3.51863 3.07929 3.87479 3.07929 4.09445 3.29896L4.38908 3.59359C4.60875 3.81326 4.60875 4.16941 4.38908 4.38908C4.16941 4.60875 3.81326 4.60875 3.59359 4.38908L3.29896 4.09445C3.07929 3.87479 3.07929 3.51863 3.29896 3.29896ZM14.7008 3.29915C14.9205 3.51882 14.9205 3.87498 14.7008 4.09465L14.4062 4.38928C14.1866 4.60895 13.8304 4.60895 13.6107 4.38928C13.391 4.1696 13.391 3.81345 13.6107 3.59378L13.9054 3.29915C14.1251 3.07949 14.4812 3.07949 14.7008 3.29915ZM0.9375 9C0.9375 8.68935 1.18934 8.4375 1.5 8.4375H2.25C2.56066 8.4375 2.8125 8.68935 2.8125 9C2.8125 9.31065 2.56066 9.5625 2.25 9.5625H1.5C1.18934 9.5625 0.9375 9.31065 0.9375 9ZM15.1875 9C15.1875 8.68935 15.4394 8.4375 15.75 8.4375H16.5C16.8107 8.4375 17.0625 8.68935 17.0625 9C17.0625 9.31065 16.8107 9.5625 16.5 9.5625H15.75C15.4394 9.5625 15.1875 9.31065 15.1875 9ZM13.6107 13.6107C13.8304 13.391 14.1866 13.391 14.4062 13.6107L14.7008 13.9054C14.9205 14.1251 14.9205 14.4812 14.7008 14.7008C14.4812 14.9205 14.1251 14.9205 13.9054 14.7008L13.6107 14.4062C13.391 14.1866 13.391 13.8304 13.6107 13.6107ZM4.38908 13.6109C4.60875 13.8306 4.60875 14.1868 4.38908 14.4065L4.09445 14.7011C3.87479 14.9207 3.51863 14.9207 3.29896 14.7011C3.07929 14.4814 3.07929 14.1252 3.29896 13.9055L3.59359 13.6109C3.81326 13.3913 4.16941 13.3913 4.38908 13.6109ZM9 15.1875C9.31065 15.1875 9.5625 15.4394 9.5625 15.75V16.5C9.5625 16.8107 9.31065 17.0625 9 17.0625C8.68935 17.0625 8.4375 16.8107 8.4375 16.5V15.75C8.4375 15.4394 8.68935 15.1875 9 15.1875Z" fill="#AEAEB2"/>
</g>
<defs>
<clipPath id="clip0_150_7603">
<rect width="18" height="18" fill="white"/>
</clipPath>
</defs>
</svg>
