<svg width="15" height="15" viewBox="0 0 15 15" fill="none" xmlns="http://www.w3.org/2000/svg">
<path d="M13.1002 1.20631L11.1494 1.18815L11.1571 0.367086C11.1578 0.294499 11.129 0.224613 11.0773 0.1728C11.0255 0.120987 10.9549 0.0914921 10.881 0.0908041C10.8071 0.090116 10.7359 0.118291 10.6832 0.169131C10.6304 0.219971 10.6004 0.289311 10.5997 0.361897L10.5921 1.18296L4.46127 1.12588L4.46892 0.30482C4.46959 0.232234 4.44088 0.162347 4.3891 0.110534C4.33731 0.0587213 4.2667 0.0292265 4.19279 0.0285384C4.11888 0.0278503 4.04773 0.0560253 3.99499 0.106865C3.94225 0.157705 3.91224 0.227045 3.91157 0.299631L3.90393 1.12069L1.95321 1.10253C1.73148 1.10047 1.51803 1.18499 1.35981 1.33751C1.2016 1.49003 1.11157 1.69805 1.10954 1.91581L1.00763 12.8633C1.0056 13.0811 1.09173 13.2907 1.24708 13.4462C1.40244 13.6016 1.61428 13.6901 1.836 13.6922L12.9829 13.7959C13.2047 13.798 13.4181 13.7135 13.5763 13.5609C13.7346 13.4084 13.8246 13.2004 13.8266 12.9826L13.9285 2.03515C13.9306 1.81739 13.8444 1.60773 13.6891 1.4523C13.5337 1.29686 13.3219 1.20837 13.1002 1.20631ZM1.94811 1.64991L3.89883 1.66807L3.89119 2.48913C3.89051 2.56172 3.91922 2.6316 3.971 2.68342C4.02279 2.73523 4.0934 2.76472 4.16731 2.76541C4.24122 2.7661 4.31237 2.73793 4.36511 2.68709C4.41785 2.63625 4.44786 2.56691 4.44853 2.49432L4.45618 1.67326L10.587 1.73033L10.5794 2.5514C10.5787 2.62398 10.6074 2.69387 10.6592 2.74568C10.711 2.79749 10.7816 2.82699 10.8555 2.82768C10.9294 2.82837 11.0005 2.80019 11.0533 2.74935C11.106 2.69851 11.136 2.62917 11.1367 2.55658L11.1443 1.73552L13.0951 1.75368C13.169 1.75437 13.2396 1.78387 13.2914 1.83568C13.3431 1.88749 13.3719 1.95738 13.3712 2.02997L13.3483 4.49315L1.64396 4.38419L1.66689 1.921C1.66757 1.84841 1.69758 1.77907 1.75032 1.72823C1.80305 1.67739 1.8742 1.64922 1.94811 1.64991ZM12.988 13.2486L1.8411 13.1448C1.76719 13.1441 1.69658 13.1146 1.64479 13.0628C1.59301 13.011 1.5643 12.9411 1.56497 12.8685L1.63886 4.93156L13.3432 5.04053L13.2693 12.9775C13.2686 13.05 13.2386 13.1194 13.1858 13.1702C13.1331 13.2211 13.062 13.2492 12.988 13.2486Z" fill="black"/>
<path d="M10.7391 8.87796C10.7391 9.17082 10.6531 9.45711 10.4921 9.70062C10.331 9.94412 10.1022 10.1339 9.83437 10.246C9.56657 10.3581 9.2719 10.3874 8.98761 10.3302C8.70332 10.2731 8.44219 10.1321 8.23723 9.925L8.23244 9.91987L6.53976 7.98953C6.36606 7.81501 6.14509 7.69638 5.90473 7.64861C5.66437 7.60084 5.41539 7.62606 5.18921 7.7211C4.96302 7.81613 4.76976 7.97672 4.63381 8.18261C4.49786 8.3885 4.42531 8.63046 4.42531 8.87796C4.42531 9.12546 4.49786 9.36742 4.63381 9.57331C4.76976 9.7792 4.96302 9.93979 5.18921 10.0348C5.41539 10.1299 5.66437 10.1551 5.90473 10.1073C6.14509 10.0595 6.36606 9.94091 6.53976 9.76639L6.78213 9.48961C6.80194 9.46695 6.82985 9.45318 6.85971 9.45131C6.88957 9.44944 6.91894 9.45963 6.94137 9.47965C6.96379 9.49966 6.97743 9.52785 6.97928 9.55802C6.98113 9.5882 6.97104 9.61787 6.95123 9.64053L6.7066 9.91987L6.70181 9.925C6.49685 10.1321 6.23572 10.2731 5.95144 10.3302C5.66715 10.3874 5.37249 10.358 5.1047 10.246C4.83691 10.1339 4.60803 9.9441 4.447 9.7006C4.28596 9.4571 4.20001 9.17082 4.20001 8.87796C4.20001 8.58511 4.28596 8.29883 4.447 8.05532C4.60803 7.81182 4.83691 7.62204 5.1047 7.50996C5.37249 7.39789 5.66715 7.36856 5.95144 7.4257C6.23572 7.48283 6.49685 7.62385 6.70181 7.83093L6.7066 7.83605L8.39759 9.76639C8.5713 9.94091 8.79227 10.0595 9.03262 10.1073C9.27298 10.1551 9.52196 10.1299 9.74814 10.0348C9.97433 9.93979 10.1676 9.7792 10.3035 9.57331C10.4395 9.36742 10.512 9.12546 10.512 8.87796C10.512 8.63046 10.4395 8.3885 10.3035 8.18261C10.1676 7.97672 9.97433 7.81613 9.74814 7.7211C9.52196 7.62606 9.27298 7.60084 9.03262 7.64861C8.79227 7.69638 8.5713 7.81501 8.39759 7.98953L8.15522 8.26631C8.14541 8.27753 8.13351 8.28669 8.1202 8.29326C8.10689 8.29983 8.09243 8.30369 8.07764 8.30462C8.06286 8.30554 8.04804 8.30352 8.03402 8.29865C8.02001 8.29379 8.00709 8.28619 7.99598 8.27628C7.98488 8.26637 7.97582 8.25435 7.96931 8.2409C7.96281 8.22745 7.95899 8.21284 7.95807 8.1979C7.95716 8.18296 7.95916 8.16799 7.96397 8.15383C7.96879 8.13967 7.97631 8.12661 7.98612 8.11539L8.23075 7.83605L8.23554 7.83093C8.44041 7.62325 8.70169 7.48171 8.98627 7.42423C9.27084 7.36676 9.5659 7.39594 9.83404 7.50809C10.1022 7.62023 10.3313 7.81029 10.4925 8.05416C10.6536 8.29803 10.7394 8.58475 10.7391 8.87796Z" fill="black"/>
</svg>
