<svg width="18" height="18" viewBox="0 0 18 18" fill="none" xmlns="http://www.w3.org/2000/svg">
<path d="M6 1.5V3.75" stroke="#8E8E93" stroke-miterlimit="10" stroke-linecap="round" stroke-linejoin="round"/>
<path d="M12 1.5V3.75" stroke="#8E8E93" stroke-miterlimit="10" stroke-linecap="round" stroke-linejoin="round"/>
<path d="M2.625 6.81738H15.375" stroke="#8E8E93" stroke-miterlimit="10" stroke-linecap="round" stroke-linejoin="round"/>
<path d="M14.4075 11.8277L11.7525 14.4827C11.6475 14.5877 11.55 14.7827 11.5275 14.9252L11.385 15.9377C11.3325 16.3052 11.5875 16.5602 11.955 16.5077L12.9675 16.3652C13.11 16.3427 13.3125 16.2452 13.41 16.1402L16.065 13.4852C16.5225 13.0277 16.74 12.4952 16.065 11.8202C15.3975 11.1527 14.865 11.3702 14.4075 11.8277Z" stroke="#8E8E93" stroke-miterlimit="10" stroke-linecap="round" stroke-linejoin="round"/>
<path d="M14.0251 12.21C14.2501 13.02 14.8801 13.65 15.6901 13.875" stroke="#8E8E93" stroke-miterlimit="10" stroke-linecap="round" stroke-linejoin="round"/>
<path d="M9 16.5H6C3.375 16.5 2.25 15 2.25 12.75V6.375C2.25 4.125 3.375 2.625 6 2.625H12C14.625 2.625 15.75 4.125 15.75 6.375V9" stroke="#8E8E93" stroke-miterlimit="10" stroke-linecap="round" stroke-linejoin="round"/>
<path d="M8.99661 10.2749H9.00335" stroke="#8E8E93" stroke-linecap="round" stroke-linejoin="round"/>
<path d="M6.22073 10.2749H6.22747" stroke="#8E8E93" stroke-linecap="round" stroke-linejoin="round"/>
<path d="M6.22073 12.5249H6.22747" stroke="#8E8E93" stroke-linecap="round" stroke-linejoin="round"/>
</svg>
