<svg width="16" height="16" viewBox="0 0 16 16" fill="none" xmlns="http://www.w3.org/2000/svg">
<path d="M8.3975 15.5003H2.0825C1.2125 15.5003 0.5 14.8028 0.5 13.9478V2.81776C0.5 0.852762 1.9625 -0.0397382 3.755 0.837762L7.085 2.47276C7.805 2.82526 8.3975 3.76276 8.3975 4.55776V15.5003Z" stroke="#5856D6" stroke-linecap="round" stroke-linejoin="round"/>
<path d="M15.5 10.2949V13.1299C15.5 14.7499 14.75 15.4999 13.13 15.4999H8.39746V6.81494L8.74996 6.88994L12.125 7.64744L13.6475 7.98494C14.6375 8.20244 15.4475 8.71244 15.4925 10.1524C15.5 10.1974 15.5 10.2424 15.5 10.2949Z" stroke="#5856D6" stroke-linecap="round" stroke-linejoin="round"/>
<path d="M3.14746 5.75H5.74996" stroke="#5856D6" stroke-linecap="round" stroke-linejoin="round"/>
<path d="M3.14746 8.75H5.74996" stroke="#5856D6" stroke-linecap="round" stroke-linejoin="round"/>
<path d="M12.125 7.64764V10.0626C12.125 10.9926 11.3675 11.7501 10.4375 11.7501C9.5075 11.7501 8.75 10.9926 8.75 10.0626V6.89014L12.125 7.64764Z" stroke="#5856D6" stroke-linecap="round" stroke-linejoin="round"/>
<path d="M15.4925 10.1525C15.4475 11.0375 14.7125 11.75 13.8125 11.75C12.8825 11.75 12.125 10.9925 12.125 10.0625V7.64746L13.6475 7.98496C14.6375 8.20246 15.4475 8.71246 15.4925 10.1525Z" stroke="#5856D6" stroke-linecap="round" stroke-linejoin="round"/>
</svg>
