<svg width="18" height="26" viewBox="0 0 18 26" fill="none" xmlns="http://www.w3.org/2000/svg">
<path d="M13.605 20.2151C12.945 20.4101 12.165 20.5001 11.25 20.5001H6.75002C5.83502 20.5001 5.05502 20.4101 4.39502 20.2151C4.56002 18.2651 6.56252 16.7275 9.00002 16.7275C11.4375 16.7275 13.44 18.2651 13.605 20.2151Z" stroke="#8280E0" stroke-linecap="round" stroke-linejoin="round"/>
<path d="M11.25 5.5H6.75C3 5.5 1.5 7 1.5 10.75V15.25C1.5 18.085 2.355 19.6375 4.395 20.215C4.56 18.265 6.5625 16.7275 9 16.7275C11.4375 16.7275 13.44 18.265 13.605 20.215C15.645 19.6375 16.5 18.085 16.5 15.25V10.75C16.5 7 15 5.5 11.25 5.5ZM9 14.6275C7.515 14.6275 6.315 13.42 6.315 11.935C6.315 10.45 7.515 9.25 9 9.25C10.485 9.25 11.685 10.45 11.685 11.935C11.685 13.42 10.485 14.6275 9 14.6275Z" stroke="#8280E0" stroke-linecap="round" stroke-linejoin="round"/>
<path d="M11.6849 11.935C11.6849 13.42 10.4849 14.6275 8.99994 14.6275C7.51494 14.6275 6.31494 13.42 6.31494 11.935C6.31494 10.45 7.51494 9.25 8.99994 9.25C10.4849 9.25 11.6849 10.45 11.6849 11.935Z" stroke="#8280E0" stroke-linecap="round" stroke-linejoin="round"/>
</svg>
