<svg width="14" height="14" viewBox="0 0 14 14" fill="none" xmlns="http://www.w3.org/2000/svg">
<path fill-rule="evenodd" clip-rule="evenodd" d="M0 9.1163C0 8.84659 0.218654 8.62793 0.488372 8.62793H13.5116C13.7813 8.62793 14 8.84659 14 9.1163C14 9.38601 13.7813 9.60467 13.5116 9.60467H0.488372C0.218654 9.60467 0 9.38601 0 9.1163ZM3.90698 13.0233C3.90698 12.7536 4.12563 12.5349 4.39535 12.5349H9.60465C9.87436 12.5349 10.093 12.7536 10.093 13.0233C10.093 13.293 9.87436 13.5117 9.60465 13.5117H4.39535C4.12563 13.5117 3.90698 13.293 3.90698 13.0233Z" fill="#AEAEB2"/>
<path d="M1.95337 11.0698C1.95337 10.8001 2.17202 10.5814 2.44174 10.5814H11.558C11.8277 10.5814 12.0464 10.8001 12.0464 11.0698C12.0464 11.3395 11.8277 11.5582 11.558 11.5582H2.44174C2.17202 11.5582 1.95337 11.3395 1.95337 11.0698Z" fill="#AEAEB2"/>
<path d="M6.99991 0C3.40363 0 0.488281 2.91535 0.488281 6.51163C0.488281 7.43771 0.681611 8.31867 1.03011 9.11628H12.9697C13.3182 8.31867 13.5115 7.43771 13.5115 6.51163C13.5115 6.21033 13.06 6.16052 12.9041 6.41838C12.1629 7.64504 10.8167 8.46512 9.27898 8.46512C6.94137 8.46512 5.04642 6.57017 5.04642 4.23256C5.04642 2.6948 5.86649 1.34859 7.09315 0.607379C7.35102 0.451562 7.3012 0 6.99991 0Z" fill="#AEAEB2"/>
<path d="M12.1443 0.200032C12.0395 -0.0666774 11.6634 -0.0666774 11.5587 0.200032L11.2784 0.913238C11.2464 0.994666 11.1822 1.05912 11.1011 1.09124L10.3905 1.37252C10.1247 1.47771 10.1247 1.85516 10.3905 1.96035L11.1011 2.24164C11.1822 2.27376 11.2464 2.33821 11.2784 2.41964L11.5587 3.13284C11.6634 3.39955 12.0395 3.39955 12.1443 3.13285L12.4246 2.41964C12.4565 2.33821 12.5207 2.27376 12.6019 2.24164L13.3125 1.96035C13.5782 1.85516 13.5782 1.47771 13.3125 1.37252L12.6019 1.09124C12.5207 1.05912 12.4565 0.994666 12.4246 0.913238L12.1443 0.200032Z" fill="#AEAEB2"/>
<path d="M9.62609 3.99141C9.52126 3.72471 9.14521 3.72471 9.04037 3.99141L8.9382 4.25145C8.90623 4.33288 8.84203 4.39733 8.76089 4.42945L8.50179 4.532C8.23606 4.63719 8.23606 5.01465 8.50179 5.11984L8.76089 5.22239C8.84203 5.25449 8.90623 5.31895 8.9382 5.40041L9.04037 5.66042C9.14521 5.92714 9.52126 5.92714 9.62609 5.66042L9.72826 5.40041C9.76023 5.31895 9.82444 5.25449 9.90557 5.22239L10.1647 5.11984C10.4304 5.01465 10.4304 4.63719 10.1647 4.532L9.90557 4.42945C9.82444 4.39733 9.76023 4.33288 9.72826 4.25145L9.62609 3.99141Z" fill="#AEAEB2"/>
</svg>
