<svg width="18" height="18" viewBox="0 0 18 18" fill="none" xmlns="http://www.w3.org/2000/svg">
<path fill-rule="evenodd" clip-rule="evenodd" d="M3.34375 14.25C3.34375 13.9394 3.5816 13.6875 3.875 13.6875H13.7917C14.0851 13.6875 14.3229 13.9394 14.3229 14.25C14.3229 14.5606 14.0851 14.8125 13.7917 14.8125H3.875C3.5816 14.8125 3.34375 14.5606 3.34375 14.25ZM5.46875 16.5C5.46875 16.1893 5.7066 15.9375 6 15.9375H11.6667C11.9601 15.9375 12.1979 16.1893 12.1979 16.5C12.1979 16.8107 11.9601 17.0625 11.6667 17.0625H6C5.7066 17.0625 5.46875 16.8107 5.46875 16.5Z" fill="#AEAEB2"/>
<path d="M4.64189 11.4375C4.26607 10.7143 4.05208 9.88335 4.05208 9C4.05208 6.20406 6.19272 3.9375 8.83333 3.9375C11.4739 3.9375 13.6146 6.20406 13.6146 9C13.6146 9.88335 13.4006 10.7143 13.0248 11.4375H15.9167C16.2101 11.4375 16.4479 11.6894 16.4479 12C16.4479 12.3106 16.2101 12.5625 15.9167 12.5625H1.75C1.4566 12.5625 1.21875 12.3106 1.21875 12C1.21875 11.6894 1.4566 11.4375 1.75 11.4375H4.64189Z" fill="#AEAEB2"/>
</svg>
