<svg width="18" height="18" viewBox="0 0 18 18" fill="none" xmlns="http://www.w3.org/2000/svg">
<path d="M14.5301 2.21503C14.4174 1.92832 14.0131 1.92832 13.9005 2.21503L13.5992 2.98173C13.5648 3.06927 13.4958 3.13856 13.4086 3.17308L12.6447 3.47546C12.359 3.58854 12.359 3.9943 12.6447 4.10738L13.4086 4.40977C13.4958 4.44429 13.5648 4.51358 13.5992 4.60111L13.9005 5.36781C14.0131 5.65452 14.4174 5.65452 14.5301 5.36781L14.8313 4.60111C14.8657 4.51358 14.9347 4.44429 15.0219 4.40977L15.7859 4.10738C16.0715 3.9943 16.0715 3.58854 15.7859 3.47546L15.0219 3.17308C14.9347 3.13856 14.8657 3.06927 14.8313 2.98173L14.5301 2.21503Z" fill="#AEAEB2"/>
<path d="M11.823 6.29084C11.7103 6.00413 11.3061 6.00413 11.1934 6.29084L11.0835 6.57038C11.0492 6.65792 10.9801 6.7272 10.8929 6.76173L10.6144 6.87198C10.3287 6.98505 10.3287 7.39082 10.6144 7.50389L10.8929 7.61414C10.9801 7.64865 11.0492 7.71795 11.0835 7.80552L11.1934 8.08503C11.3061 8.37175 11.7103 8.37175 11.823 8.08503L11.9328 7.80552C11.9672 7.71795 12.0362 7.64865 12.1235 7.61414L12.402 7.50389C12.6877 7.39082 12.6877 6.98505 12.402 6.87198L12.1235 6.76173C12.0362 6.7272 11.9672 6.65792 11.9328 6.57038L11.823 6.29084Z" fill="#AEAEB2"/>
<path d="M9 16C12.866 16 16 12.866 16 9C16 8.67611 15.5145 8.62256 15.347 8.89976C14.5502 10.2184 13.103 11.1 11.45 11.1C8.93707 11.1 6.9 9.06293 6.9 6.55C6.9 4.89691 7.78158 3.44974 9.10024 2.65293C9.37744 2.48543 9.32389 2 9 2C5.134 2 2 5.134 2 9C2 12.866 5.134 16 9 16Z" fill="#AEAEB2"/>
</svg>
