<svg width="14" height="14" viewBox="0 0 14 14" fill="none" xmlns="http://www.w3.org/2000/svg">
<path d="M1.33594 4.53848V10.2143C1.33594 11.3226 2.12344 11.7776 3.0801 11.2293L4.45094 10.4476C4.74844 10.2785 5.24427 10.261 5.55344 10.4185L8.61594 11.9526C8.9251 12.1043 9.42094 12.0926 9.71844 11.9235L12.2443 10.4768C12.5651 10.2901 12.8334 9.83515 12.8334 9.46181V3.78598C12.8334 2.67765 12.0459 2.22265 11.0893 2.77098L9.71844 3.55265C9.42094 3.72182 8.9251 3.73932 8.61594 3.58182L5.55344 2.05348C5.24427 1.90182 4.74844 1.91348 4.45094 2.08265L1.9251 3.52932C1.59844 3.71598 1.33594 4.17098 1.33594 4.53848Z" stroke="#5856D6" stroke-linecap="round" stroke-linejoin="round"/>
<path d="M4.99341 2.3335V9.91683" stroke="#5856D6" stroke-linecap="round" stroke-linejoin="round"/>
<path d="M9.17578 3.86182V11.6668" stroke="#5856D6" stroke-linecap="round" stroke-linejoin="round"/>
</svg>
