<svg width="18" height="18" viewBox="0 0 18 18" fill="none" xmlns="http://www.w3.org/2000/svg">
<g clip-path="url(#clip0_150_7595)">
<path d="M12.2998 15.9375C12.6105 15.9375 12.8623 16.1894 12.8623 16.5C12.8623 16.8106 12.6105 17.0625 12.2998 17.0625H6.2998C5.98924 17.0624 5.7373 16.8106 5.7373 16.5C5.73731 16.1894 5.98924 15.9376 6.2998 15.9375H12.2998ZM14.5498 13.6875C14.8605 13.6875 15.1123 13.9394 15.1123 14.25C15.1123 14.5606 14.8605 14.8125 14.5498 14.8125H4.0498C3.73924 14.8124 3.4873 14.5606 3.4873 14.25C3.48731 13.9394 3.73924 13.6876 4.0498 13.6875H14.5498ZM9 3.9375C11.7959 3.9375 14.0625 6.20406 14.0625 9C14.0625 9.88335 13.8355 10.7143 13.4375 11.4375H16.5C16.8106 11.4375 17.0625 11.6894 17.0625 12C17.0625 12.3106 16.8106 12.5625 16.5 12.5625H1.5C1.18934 12.5625 0.9375 12.3106 0.9375 12C0.9375 11.6894 1.18934 11.4375 1.5 11.4375H4.56152C4.16367 10.7144 3.9375 9.88327 3.9375 9C3.9375 6.20406 6.20406 3.9375 9 3.9375ZM2.25 8.4375C2.56066 8.4375 2.8125 8.68935 2.8125 9C2.8125 9.31065 2.56066 9.5625 2.25 9.5625H1.5C1.18934 9.5625 0.9375 9.31065 0.9375 9C0.937501 8.68935 1.18934 8.4375 1.5 8.4375H2.25ZM16.5 8.4375C16.8106 8.4375 17.0625 8.68935 17.0625 9C17.0625 9.31065 16.8106 9.5625 16.5 9.5625H15.75C15.4394 9.5625 15.1875 9.31065 15.1875 9C15.1875 8.68935 15.4394 8.4375 15.75 8.4375H16.5ZM3.29883 3.29883C3.5185 3.07916 3.87506 3.07916 4.09473 3.29883L4.38867 3.59375C4.60834 3.81342 4.60834 4.169 4.38867 4.38867C4.169 4.60834 3.81342 4.60834 3.59375 4.38867L3.29883 4.09473C3.07916 3.87506 3.07916 3.5185 3.29883 3.29883ZM13.9053 3.29883C14.125 3.07927 14.4815 3.0792 14.7012 3.29883C14.9208 3.51845 14.9207 3.87505 14.7012 4.09473L14.4062 4.38965C14.1866 4.60914 13.83 4.60925 13.6104 4.38965C13.3907 4.17003 13.3908 3.81343 13.6104 3.59375L13.9053 3.29883ZM9 0.9375C9.31065 0.9375 9.5625 1.18934 9.5625 1.5V2.25C9.5625 2.56066 9.31065 2.8125 9 2.8125C8.68935 2.8125 8.4375 2.56066 8.4375 2.25V1.5C8.4375 1.18934 8.68935 0.937501 9 0.9375Z" fill="#5856D6"/>
</g>
<defs>
<clipPath id="clip0_150_7595">
<rect width="18" height="18" fill="white"/>
</clipPath>
</defs>
</svg>
