<svg width="25" height="25" viewBox="0 0 25 25" fill="none" xmlns="http://www.w3.org/2000/svg">
<path d="M24.7714 15.1913C24.6751 15.0951 24.5543 15.0269 24.4222 14.9941C24.2901 14.9613 24.1515 14.9651 24.0214 15.005C22.0714 15.5944 19.9979 15.6437 18.0221 15.1476C16.0463 14.6514 14.2421 13.6285 12.8018 12.1879C11.3615 10.7472 10.3391 8.94271 9.8435 6.96676C9.34791 4.9908 9.39773 2.91741 9.98764 0.967531C10.027 0.837502 10.0304 0.699211 9.99732 0.567429C9.96425 0.435647 9.89599 0.315325 9.79986 0.219316C9.70372 0.123306 9.5833 0.0552156 9.45148 0.0223175C9.31965 -0.0105807 9.18137 -0.00705059 9.05139 0.0325306C6.46584 0.82577 4.19618 2.41396 2.56514 4.57128C0.71622 7.02639 -0.18364 10.0668 0.0312069 13.1327C0.246054 16.1986 1.56115 19.0838 3.73441 21.257C5.90766 23.4303 8.7928 24.7454 11.8587 24.9602C14.9247 25.1751 17.965 24.2752 20.4201 22.4263C22.5775 20.7952 24.1657 18.5256 24.9589 15.94C24.9984 15.81 25.0019 15.6716 24.9689 15.5397C24.9358 15.4078 24.8676 15.2874 24.7714 15.1913ZM19.5214 21.2275C17.355 22.8524 14.6751 23.6412 11.9739 23.4492C9.27266 23.2573 6.73132 22.0974 4.81644 20.1825C2.90156 18.2676 1.74166 15.7263 1.54969 13.025C1.35772 10.3238 2.14656 7.64397 3.77139 5.47753C4.9287 3.94306 6.45634 2.72723 8.21139 1.94378C7.8419 3.97331 7.97007 6.06217 8.58493 8.03129C9.19978 10.0004 10.283 11.7911 11.7417 13.2498C13.2003 14.7084 14.991 15.7916 16.9601 16.4065C18.9293 17.0214 21.0181 17.1495 23.0476 16.78C22.2663 18.5374 21.0517 20.0677 19.5176 21.2275H19.5214Z" fill="white"/>
</svg>
