<svg width="13" height="14" viewBox="0 0 13 14" fill="none" xmlns="http://www.w3.org/2000/svg">
<path opacity="0.16" d="M1.52254 0.715744C1.47372 0.662445 1.41445 0.61906 1.34819 0.588104C1.28192 0.557149 1.20997 0.539238 1.13651 0.535411C1.06304 0.531583 0.989525 0.541915 0.920213 0.565807C0.850901 0.589698 0.787175 0.626676 0.732728 0.674595C0.678282 0.722514 0.634197 0.780422 0.60303 0.844962C0.571863 0.909503 0.554232 0.979393 0.551161 1.05058C0.54809 1.12177 0.559639 1.19284 0.585139 1.25967C0.610638 1.32651 0.649581 1.38777 0.699711 1.43992L1.86307 2.67964C1.369 3.50092 1.10947 4.43473 1.11112 5.38522C1.11112 7.76371 0.537091 9.58358 0.15139 10.227C0.0528941 10.3906 0.000677787 10.5764 6.55411e-06 10.7658C-0.000664679 10.9551 0.0502331 11.1413 0.147567 11.3055C0.244901 11.4697 0.385229 11.6062 0.554399 11.7012C0.723569 11.7961 0.9156 11.8462 1.11112 11.8463H10.468L11.819 13.2852C11.8678 13.3385 11.9271 13.3819 11.9934 13.4129C12.0596 13.4438 12.1316 13.4617 12.205 13.4656C12.2785 13.4694 12.352 13.4591 12.4213 13.4352C12.4907 13.4113 12.5544 13.3743 12.6088 13.3264C12.6633 13.2785 12.7074 13.2206 12.7385 13.156C12.7697 13.0915 12.7873 13.0216 12.7904 12.9504C12.7935 12.8792 12.7819 12.8081 12.7564 12.7413C12.7309 12.6745 12.692 12.6132 12.6418 12.5611L1.52254 0.715744ZM1.11112 10.7695C1.64624 9.87837 2.22306 7.81351 2.22306 5.38522C2.22208 4.74181 2.37078 4.10645 2.6581 3.52631L9.45686 10.7695H1.11112ZM9.4506 13.4616C9.4506 13.6044 9.39203 13.7413 9.28776 13.8423C9.1835 13.9433 9.04209 14 8.89464 14H4.44692C4.29947 14 4.15805 13.9433 4.05379 13.8423C3.94953 13.7413 3.89095 13.6044 3.89095 13.4616C3.89095 13.3188 3.94953 13.1818 4.05379 13.0809C4.15805 12.9799 4.29947 12.9232 4.44692 12.9232H8.89464C9.04209 12.9232 9.1835 12.9799 9.28776 13.0809C9.39203 13.1818 9.4506 13.3188 9.4506 13.4616ZM12.6474 10.4498C12.5825 10.4742 12.5134 10.4867 12.4438 10.4868C12.3321 10.4867 12.2231 10.454 12.1308 10.393C12.0386 10.332 11.9675 10.2456 11.9267 10.1449C11.4208 8.89776 11.1185 7.11827 11.1185 5.38522C11.1187 4.63184 10.9149 3.89158 10.5274 3.23832C10.1399 2.58506 9.58222 2.04166 8.91008 1.66236C8.23794 1.28305 7.47483 1.0811 6.69692 1.07667C5.919 1.07225 5.1535 1.26549 4.4768 1.63712C4.34885 1.70426 4.19881 1.72014 4.0589 1.68135C3.91899 1.64255 3.80037 1.55218 3.7285 1.42962C3.65663 1.30707 3.63724 1.16211 3.6745 1.02587C3.71176 0.889632 3.8027 0.772971 3.92778 0.700938C4.7736 0.236311 5.73046 -0.00534471 6.70286 8.96729e-05C7.67526 0.00552406 8.62917 0.257859 9.4694 0.731908C10.3096 1.20596 11.0068 1.88514 11.4913 2.70166C11.9757 3.51819 12.2306 4.44349 12.2304 5.38522C12.2304 7.76438 12.7899 9.3285 12.9615 9.75184C13.0154 9.88473 13.0126 10.0329 12.9537 10.1638C12.8948 10.2947 12.7846 10.3975 12.6474 10.4498Z" fill="black"/>
</svg>
