<svg width="14" height="17" viewBox="0 0 14 17" fill="none" xmlns="http://www.w3.org/2000/svg">
<path d="M6.53448 1.22754C4.05198 1.22754 2.03447 3.24504 2.03447 5.72754V7.89504C2.03447 8.35254 1.83947 9.05004 1.60697 9.44004L0.744475 10.8725C0.211975 11.7575 0.579475 12.74 1.55448 13.07C4.78698 14.15 8.27447 14.15 11.507 13.07C12.4145 12.77 12.812 11.6975 12.317 10.8725L11.4545 9.44004C11.2295 9.05004 11.0345 8.35254 11.0345 7.89504V5.72754C11.0345 3.25254 9.00948 1.22754 6.53448 1.22754Z" stroke="#8E8E93" stroke-miterlimit="10" stroke-linecap="round"/>
<path d="M7.92197 1.445C7.68947 1.3775 7.44947 1.325 7.20197 1.295C6.48197 1.205 5.79197 1.2575 5.14697 1.445C5.36447 0.89 5.90447 0.5 6.53447 0.5C7.16447 0.5 7.70447 0.89 7.92197 1.445Z" stroke="#8E8E93" stroke-miterlimit="10" stroke-linecap="round" stroke-linejoin="round"/>
<path d="M8.78442 13.3398C8.78442 14.5773 7.77192 15.5898 6.53442 15.5898C5.91942 15.5898 5.34942 15.3348 4.94442 14.9298C4.53942 14.5248 4.28442 13.9548 4.28442 13.3398" stroke="#8E8E93" stroke-miterlimit="10"/>
</svg>
