<svg width="13" height="14" viewBox="0 0 13 14" fill="none" xmlns="http://www.w3.org/2000/svg">
<path d="M12.2679 3.44401C12.1502 3.50496 12.0131 3.51668 11.8868 3.4766C11.7605 3.43652 11.6552 3.34791 11.5942 3.23026C11.1169 2.28744 10.3945 1.49057 9.50292 0.923384C9.44735 0.888337 9.39923 0.842689 9.36131 0.789047C9.32338 0.735404 9.2964 0.674817 9.28189 0.610744C9.26738 0.546672 9.26563 0.480369 9.27675 0.415621C9.28786 0.350874 9.31162 0.288949 9.34667 0.233384C9.38171 0.177818 9.42736 0.1297 9.481 0.0917755C9.53465 0.0538513 9.59523 0.0268642 9.65931 0.0123551C9.72338 -0.00215408 9.78968 -0.00390117 9.85443 0.00721357C9.91918 0.0183283 9.9811 0.0420872 10.0367 0.0771338C11.0758 0.742469 11.9196 1.67186 12.4817 2.77026C12.5426 2.88796 12.5543 3.02504 12.5143 3.15138C12.4742 3.27772 12.3856 3.38297 12.2679 3.44401ZM0.499791 3.50026C0.591392 3.50022 0.681224 3.47502 0.759478 3.4274C0.837733 3.37979 0.901404 3.31159 0.943541 3.23026C1.42079 2.28744 2.14318 1.49057 3.03479 0.923384C3.14701 0.852604 3.22652 0.740144 3.25582 0.610744C3.28512 0.481344 3.26182 0.345603 3.19104 0.233384C3.12026 0.121164 3.0078 0.0416576 2.8784 0.0123551C2.749 -0.0169475 2.61326 0.0063541 2.50104 0.0771338C1.46192 0.742469 0.618153 1.67186 0.0560407 2.77026C0.0165643 2.84646 -0.00263497 2.93154 0.000290688 3.0173C0.00321634 3.10307 0.0281684 3.18664 0.0727455 3.25998C0.117323 3.33331 0.180024 3.39393 0.254816 3.43602C0.329608 3.4781 0.413972 3.50022 0.499791 3.50026ZM12.131 9.99651C12.2196 10.1484 12.2666 10.321 12.2672 10.4968C12.2678 10.6727 12.222 10.8456 12.1345 10.9981C12.0469 11.1506 11.9207 11.2773 11.7686 11.3655C11.6165 11.4536 11.4438 11.5001 11.2679 11.5003H8.71792C8.60316 12.0654 8.29655 12.5735 7.85005 12.9384C7.40354 13.3034 6.84459 13.5028 6.26792 13.5028C5.69124 13.5028 5.13229 13.3034 4.68579 12.9384C4.23928 12.5735 3.93267 12.0654 3.81792 11.5003H1.26792C1.09218 11.4999 0.919637 11.4533 0.76767 11.365C0.615703 11.2767 0.489678 11.15 0.40229 10.9975C0.314902 10.8451 0.269238 10.6722 0.269896 10.4965C0.270554 10.3208 0.317513 10.1483 0.406041 9.99651C0.969166 9.02463 1.26792 7.64276 1.26792 6.00026C1.26792 4.67418 1.7947 3.40241 2.73238 2.46472C3.67006 1.52704 4.94183 1.00026 6.26792 1.00026C7.594 1.00026 8.86577 1.52704 9.80345 2.46472C10.7411 3.40241 11.2679 4.67418 11.2679 6.00026C11.2679 7.64213 11.5667 9.02401 12.131 9.99651ZM7.68167 11.5003H4.85417C4.95775 11.7924 5.1493 12.0453 5.40246 12.2241C5.65562 12.4029 5.95796 12.4989 6.26792 12.4989C6.57787 12.4989 6.88021 12.4029 7.13337 12.2241C7.38653 12.0453 7.57808 11.7924 7.68167 11.5003ZM11.2679 10.5003C10.6029 9.35838 10.2679 7.84463 10.2679 6.00026C10.2679 4.93939 9.84649 3.92198 9.09634 3.17183C8.3462 2.42169 7.32878 2.00026 6.26792 2.00026C5.20705 2.00026 4.18963 2.42169 3.43949 3.17183C2.68934 3.92198 2.26792 4.93939 2.26792 6.00026C2.26792 7.84526 1.93167 9.35901 1.26792 10.5003H11.2679Z" fill="black"/>
</svg>
