<svg width="28" height="28" viewBox="0 0 28 28" fill="none" xmlns="http://www.w3.org/2000/svg">
<path d="M13.125 3.51562V0.703125C13.125 0.516645 13.1991 0.337802 13.3309 0.205941C13.4628 0.0740791 13.6416 0 13.8281 0C14.0146 0 14.1934 0.0740791 14.3253 0.205941C14.4572 0.337802 14.5312 0.516645 14.5312 0.703125V3.51562C14.5312 3.70211 14.4572 3.88095 14.3253 4.01281C14.1934 4.14467 14.0146 4.21875 13.8281 4.21875C13.6416 4.21875 13.4628 4.14467 13.3309 4.01281C13.1991 3.88095 13.125 3.70211 13.125 3.51562ZM21.0938 13.8281C21.0938 15.2651 20.6676 16.6699 19.8693 17.8647C19.0709 19.0595 17.9362 19.9908 16.6086 20.5407C15.2809 21.0906 13.8201 21.2345 12.4107 20.9541C11.0013 20.6738 9.70667 19.9818 8.69055 18.9657C7.67444 17.9496 6.98245 16.655 6.70211 15.2456C6.42176 13.8362 6.56564 12.3753 7.11556 11.0477C7.66548 9.72007 8.59674 8.58534 9.79156 7.78698C10.9864 6.98862 12.3911 6.5625 13.8281 6.5625C15.7544 6.56467 17.6012 7.33085 18.9633 8.69295C20.3254 10.055 21.0916 11.9018 21.0938 13.8281ZM19.6875 13.8281C19.6875 12.6693 19.3439 11.5364 18.7 10.5728C18.0562 9.60926 17.1411 8.85825 16.0704 8.41477C14.9998 7.97129 13.8216 7.85525 12.685 8.08134C11.5484 8.30742 10.5044 8.86547 9.68492 9.68492C8.86547 10.5044 8.30742 11.5484 8.08134 12.685C7.85525 13.8216 7.97129 14.9998 8.41477 16.0704C8.85825 17.1411 9.60926 18.0562 10.5728 18.7C11.5364 19.3439 12.6693 19.6875 13.8281 19.6875C15.3816 19.6856 16.8708 19.0677 17.9693 17.9693C19.0677 16.8708 19.6856 15.3816 19.6875 13.8281ZM5.83125 6.825C5.89562 6.89408 5.97325 6.94949 6.0595 6.98792C6.14574 7.02635 6.23885 7.04701 6.33326 7.04868C6.42767 7.05035 6.52145 7.03298 6.609 6.99761C6.69655 6.96225 6.77608 6.90962 6.84285 6.84285C6.90962 6.77608 6.96225 6.69655 6.99761 6.609C7.03298 6.52145 7.05035 6.42767 7.04868 6.33326C7.04701 6.23885 7.02635 6.14574 6.98792 6.0595C6.94949 5.97325 6.89408 5.89562 6.825 5.83125L4.95 3.95625C4.81671 3.83205 4.64042 3.76443 4.45826 3.76765C4.2761 3.77086 4.1023 3.84465 3.97348 3.97348C3.84465 4.1023 3.77086 4.2761 3.76765 4.45826C3.76443 4.64042 3.83205 4.81671 3.95625 4.95L5.83125 6.825ZM5.83125 20.8312L3.95625 22.7062C3.88717 22.7706 3.83176 22.8482 3.79333 22.9345C3.7549 23.0207 3.73424 23.1139 3.73257 23.2083C3.7309 23.3027 3.74827 23.3964 3.78363 23.484C3.819 23.5715 3.87163 23.6511 3.9384 23.7178C4.00517 23.7846 4.0847 23.8373 4.17225 23.8726C4.2598 23.908 4.35358 23.9253 4.44799 23.9237C4.5424 23.922 4.63551 23.9014 4.72175 23.8629C4.808 23.8245 4.88563 23.7691 4.95 23.7L6.825 21.825C6.89408 21.7606 6.94949 21.683 6.98792 21.5968C7.02635 21.5105 7.04701 21.4174 7.04868 21.323C7.05035 21.2286 7.03298 21.1348 6.99761 21.0473C6.96225 20.9597 6.90962 20.8802 6.84285 20.8134C6.77608 20.7466 6.69655 20.694 6.609 20.6586C6.52145 20.6233 6.42767 20.6059 6.33326 20.6076C6.23885 20.6092 6.14574 20.6299 6.0595 20.6683C5.97325 20.7068 5.89562 20.7622 5.83125 20.8312ZM21.3281 7.03125C21.5145 7.03109 21.6933 6.9569 21.825 6.825L23.7 4.95C23.8242 4.81671 23.8918 4.64042 23.8886 4.45826C23.8854 4.2761 23.8116 4.1023 23.6828 3.97348C23.5539 3.84465 23.3801 3.77086 23.198 3.76765C23.0158 3.76443 22.8395 3.83205 22.7062 3.95625L20.8312 5.83125C20.733 5.92958 20.6662 6.05481 20.6391 6.19112C20.612 6.32743 20.6259 6.46871 20.6791 6.59712C20.7323 6.72552 20.8223 6.83529 20.9378 6.91256C21.0533 6.98982 21.1891 7.03113 21.3281 7.03125ZM21.825 20.8312C21.6917 20.707 21.5154 20.6394 21.3333 20.6426C21.1511 20.6459 20.9773 20.7197 20.8485 20.8485C20.7197 20.9773 20.6459 21.1511 20.6426 21.3333C20.6394 21.5154 20.707 21.6917 20.8312 21.825L22.7062 23.7C22.8395 23.8242 23.0158 23.8918 23.198 23.8886C23.3801 23.8854 23.5539 23.8116 23.6828 23.6828C23.8116 23.5539 23.8854 23.3801 23.8886 23.198C23.8918 23.0158 23.8242 22.8395 23.7 22.7062L21.825 20.8312ZM4.21875 13.8281C4.21875 13.6416 4.14467 13.4628 4.01281 13.3309C3.88095 13.1991 3.70211 13.125 3.51562 13.125H0.703125C0.516645 13.125 0.337802 13.1991 0.205941 13.3309C0.0740791 13.4628 0 13.6416 0 13.8281C0 14.0146 0.0740791 14.1934 0.205941 14.3253C0.337802 14.4572 0.516645 14.5312 0.703125 14.5312H3.51562C3.70211 14.5312 3.88095 14.4572 4.01281 14.3253C4.14467 14.1934 4.21875 14.0146 4.21875 13.8281ZM13.8281 23.4375C13.6416 23.4375 13.4628 23.5116 13.3309 23.6434C13.1991 23.7753 13.125 23.9541 13.125 24.1406V26.9531C13.125 27.1396 13.1991 27.3184 13.3309 27.4503C13.4628 27.5822 13.6416 27.6562 13.8281 27.6562C14.0146 27.6562 14.1934 27.5822 14.3253 27.4503C14.4572 27.3184 14.5312 27.1396 14.5312 26.9531V24.1406C14.5312 23.9541 14.4572 23.7753 14.3253 23.6434C14.1934 23.5116 14.0146 23.4375 13.8281 23.4375ZM26.9531 13.125H24.1406C23.9541 13.125 23.7753 13.1991 23.6434 13.3309C23.5116 13.4628 23.4375 13.6416 23.4375 13.8281C23.4375 14.0146 23.5116 14.1934 23.6434 14.3253C23.7753 14.4572 23.9541 14.5312 24.1406 14.5312H26.9531C27.1396 14.5312 27.3184 14.4572 27.4503 14.3253C27.5822 14.1934 27.6562 14.0146 27.6562 13.8281C27.6562 13.6416 27.5822 13.4628 27.4503 13.3309C27.3184 13.1991 27.1396 13.125 26.9531 13.125Z" fill="#FF822D"/>
</svg>
