<svg width="16" height="16" viewBox="0 0 16 16" fill="none" xmlns="http://www.w3.org/2000/svg">
<path d="M14.6667 11.6665H10" stroke="#8E8E93" stroke-miterlimit="10" stroke-linecap="round" stroke-linejoin="round"/>
<path d="M3.33325 11.6665H1.33325" stroke="#8E8E93" stroke-miterlimit="10" stroke-linecap="round" stroke-linejoin="round"/>
<path d="M14.6667 4.3335H12.6667" stroke="#8E8E93" stroke-miterlimit="10" stroke-linecap="round" stroke-linejoin="round"/>
<path d="M5.99992 4.3335H1.33325" stroke="#8E8E93" stroke-miterlimit="10" stroke-linecap="round" stroke-linejoin="round"/>
<path d="M4.66659 9.6665H8.66658C9.39992 9.6665 9.99992 9.99984 9.99992 10.9998V12.3332C9.99992 13.3332 9.39992 13.6665 8.66658 13.6665H4.66659C3.93325 13.6665 3.33325 13.3332 3.33325 12.3332V10.9998C3.33325 9.99984 3.93325 9.6665 4.66659 9.6665Z" stroke="#8E8E93" stroke-miterlimit="10" stroke-linecap="round" stroke-linejoin="round"/>
<path d="M7.33333 2.3335H11.3333C12.0667 2.3335 12.6667 2.66683 12.6667 3.66683V5.00016C12.6667 6.00016 12.0667 6.3335 11.3333 6.3335H7.33333C6.6 6.3335 6 6.00016 6 5.00016V3.66683C6 2.66683 6.6 2.3335 7.33333 2.3335Z" stroke="#8E8E93" stroke-miterlimit="10" stroke-linecap="round" stroke-linejoin="round"/>
</svg>
