<svg width="15" height="15" viewBox="0 0 15 15" fill="none" xmlns="http://www.w3.org/2000/svg">
<path d="M1.55357 9.89478L4.95107 13.2923C6.34607 14.6873 8.61107 14.6873 10.0136 13.2923L13.3061 9.99977C14.7011 8.60477 14.7011 6.33978 13.3061 4.93728L9.90107 1.54728C9.18857 0.834776 8.20607 0.452275 7.20107 0.504775L3.45107 0.684775C1.95107 0.752275 0.758567 1.94478 0.683567 3.43728L0.503567 7.18727C0.458567 8.19977 0.841067 9.18228 1.55357 9.89478Z" stroke="#8E8E93" stroke-linecap="round" stroke-linejoin="round"/>
<path d="M5.55127 7.41992C6.5868 7.41992 7.42627 6.58046 7.42627 5.54492C7.42627 4.50939 6.5868 3.66992 5.55127 3.66992C4.51574 3.66992 3.67627 4.50939 3.67627 5.54492C3.67627 6.58046 4.51574 7.41992 5.55127 7.41992Z" stroke="#8E8E93" stroke-linecap="round"/>
</svg>
